<svg xmlns="http://www.w3.org/2000/svg" viewBox="0 0 84.73 87.48"><defs><style>.cls-1{fill:#cbe8fb;}.cls-2{fill:#60a8d3;}</style></defs><g id="Capa_2" data-name="Capa 2"><g id="Capa_2-2" data-name="Capa 2"><path class="cls-1" d="M43.73,0S32.11-.1,31.1,12c0,0-.27,8.41-.08,13.54s-.71,5.68-4.67,5.69S.12,27,0,43.74c0,0-.8,12.73,13.28,12.72H27.36s3.33-.3,3.44,1.86.29,17,.29,17,.28,12.15,12.64,12.15S56.07,75.23,56.07,75.23l.27-6.51V65.88c0-2-1.39-4.21-4.74-5.86s-8.46-8.21-8.29-16.28a19.36,19.36,0,0,1,6.33-14.16c1.48-1.19,6.29-3.65,6.72-10.19,0,0-.17-6.28-.48-8.68S53,.1,43.73,0Z"/><rect class="cls-2" x="49.75" y="31.76" width="34.99" height="23.97" rx="11.98"/></g></g></svg>